<svg xmlns="http://www.w3.org/2000/svg" width="112.411" height="18.489" viewBox="0 0 112.411 18.489">
  <g id="Group_260" data-name="Group 260" transform="translate(-255 -930)">
    <path id="Path_332" data-name="Path 332" d="M18.117,7.986a1.09,1.09,0,0,0-.538-1.843l-5.068-.768h0L10.361.691a1.123,1.123,0,0,0-2.073,0l-2.3,4.684h0L.84,6.143A1.09,1.09,0,0,0,.3,7.986l3.686,3.839V11.9l-.845,5.145a1.191,1.191,0,0,0,1.689,1.305l4.3-2.457h.077l4.3,2.38A1.191,1.191,0,0,0,15.2,16.97l-.845-5.145v-.077Z" transform="translate(255.021 930)" fill="#ff3e3e"/>
    <path id="Path_333" data-name="Path 333" d="M18.117,7.986a1.09,1.09,0,0,0-.538-1.843l-5.068-.768h0L10.361.691a1.123,1.123,0,0,0-2.073,0l-2.3,4.684h0L.84,6.143A1.09,1.09,0,0,0,.3,7.986l3.686,3.839V11.9l-.845,5.145a1.191,1.191,0,0,0,1.689,1.305l4.3-2.457h.077l4.3,2.38A1.191,1.191,0,0,0,15.2,16.97l-.845-5.145v-.077Z" transform="translate(278.508 930)" fill="#ff3e3e"/>
    <path id="Path_334" data-name="Path 334" d="M18.117,7.986a1.09,1.09,0,0,0-.538-1.843l-5.068-.768h0L10.361.691a1.123,1.123,0,0,0-2.073,0l-2.3,4.684h0L.84,6.143A1.09,1.09,0,0,0,.3,7.986l3.686,3.839V11.9l-.845,5.145a1.191,1.191,0,0,0,1.689,1.305l4.3-2.457h.077l4.3,2.38A1.191,1.191,0,0,0,15.2,16.97l-.845-5.145v-.077Z" transform="translate(301.996 930)" fill="#ff3e3e"/>
    <path id="Path_335" data-name="Path 335" d="M18.117,7.986a1.09,1.09,0,0,0-.538-1.843l-5.068-.768h0L10.361.691a1.123,1.123,0,0,0-2.073,0l-2.3,4.684h0L.84,6.143A1.09,1.09,0,0,0,.3,7.986l3.686,3.839V11.9l-.845,5.145a1.191,1.191,0,0,0,1.689,1.305l4.3-2.457h.077l4.3,2.38A1.191,1.191,0,0,0,15.2,16.97l-.845-5.145v-.077Z" transform="translate(325.484 930)" fill="#ff3e3e"/>
    <path id="Path_336" data-name="Path 336" d="M18.117,7.986a1.09,1.09,0,0,0-.538-1.843l-5.068-.768h0L10.361.691a1.123,1.123,0,0,0-2.073,0l-2.3,4.684h0L.84,6.143A1.09,1.09,0,0,0,.3,7.986l3.686,3.839V11.9l-.845,5.145a1.191,1.191,0,0,0,1.689,1.305l4.3-2.457h.077l4.3,2.38A1.191,1.191,0,0,0,15.2,16.97l-.845-5.145v-.077Z" transform="translate(348.972 930)" fill="#e9e9f0"/>
  </g>
</svg>
