<svg xmlns="http://www.w3.org/2000/svg" width="37.24" height="42.56" viewBox="0 0 37.24 42.56"><defs><style>.a{fill:#fff;}</style></defs><path class="a" d="M40.12,25.547V43.28H26.82V39.733H15.293V43.28H2.88V25.547Zm-8.025-3.232a10.171,10.171,0,0,0-3.467-5.676C26.875,15.182,24.8,14.907,22.4,14.02h-.009V8.409l.465-.125,1.017-.377a9.772,9.772,0,0,1,1.114-.321,3.647,3.647,0,0,1,.785-.122,6.073,6.073,0,0,1,1.252.161c.5.122,1.04.254,1.585.4.568.172,1.076.3,1.568.413a5.377,5.377,0,0,0,1.187.152,8.578,8.578,0,0,0,1.668-.229V1.944a6.074,6.074,0,0,1-1.669.327,4.971,4.971,0,0,1-1.2-.168c-.49-.094-1-.24-1.564-.405q-.76-.228-1.537-.4a4.722,4.722,0,0,0-1.135-.169,8.3,8.3,0,0,0-3.538.759V.72H20.613v13.3h-.056c-2.387.887-4.477,1.213-6.228,2.67a10.269,10.269,0,0,0-3.473,5.551,1.442,1.442,0,0,0-1.7,1.532h24.8c0-1.773-1.862-1.459-1.862-1.459Z" transform="translate(-2.88 -0.72)"/></svg>